G75*
G70*
%OFA0B0*%
%FSLAX24Y24*%
%IPPOS*%
%LPD*%
%AMOC8*
5,1,8,0,0,1.08239X$1,22.5*
%
%ADD10C,0.0100*%
%ADD11C,0.0000*%
%ADD12C,0.0520*%
%ADD13C,0.0660*%
%ADD14C,0.0660*%
%ADD15C,0.0600*%
%ADD16C,0.0594*%
%ADD17OC8,0.0520*%
%ADD18C,0.0515*%
%ADD19OC8,0.0600*%
%ADD20OC8,0.0630*%
%ADD21C,0.0630*%
%ADD22C,0.0320*%
%ADD23C,0.0356*%
D10*
X000151Y000242D02*
X000151Y021742D01*
X027651Y021742D01*
X027651Y000242D01*
X000151Y000242D01*
D11*
X002001Y002342D02*
X002003Y002392D01*
X002009Y002442D01*
X002019Y002492D01*
X002032Y002540D01*
X002049Y002588D01*
X002070Y002634D01*
X002094Y002678D01*
X002122Y002720D01*
X002153Y002760D01*
X002187Y002797D01*
X002224Y002832D01*
X002263Y002863D01*
X002304Y002892D01*
X002348Y002917D01*
X002394Y002939D01*
X002441Y002957D01*
X002489Y002971D01*
X002538Y002982D01*
X002588Y002989D01*
X002638Y002992D01*
X002689Y002991D01*
X002739Y002986D01*
X002789Y002977D01*
X002837Y002965D01*
X002885Y002948D01*
X002931Y002928D01*
X002976Y002905D01*
X003019Y002878D01*
X003059Y002848D01*
X003097Y002815D01*
X003132Y002779D01*
X003165Y002740D01*
X003194Y002699D01*
X003220Y002656D01*
X003243Y002611D01*
X003262Y002564D01*
X003277Y002516D01*
X003289Y002467D01*
X003297Y002417D01*
X003301Y002367D01*
X003301Y002317D01*
X003297Y002267D01*
X003289Y002217D01*
X003277Y002168D01*
X003262Y002120D01*
X003243Y002073D01*
X003220Y002028D01*
X003194Y001985D01*
X003165Y001944D01*
X003132Y001905D01*
X003097Y001869D01*
X003059Y001836D01*
X003019Y001806D01*
X002976Y001779D01*
X002931Y001756D01*
X002885Y001736D01*
X002837Y001719D01*
X002789Y001707D01*
X002739Y001698D01*
X002689Y001693D01*
X002638Y001692D01*
X002588Y001695D01*
X002538Y001702D01*
X002489Y001713D01*
X002441Y001727D01*
X002394Y001745D01*
X002348Y001767D01*
X002304Y001792D01*
X002263Y001821D01*
X002224Y001852D01*
X002187Y001887D01*
X002153Y001924D01*
X002122Y001964D01*
X002094Y002006D01*
X002070Y002050D01*
X002049Y002096D01*
X002032Y002144D01*
X002019Y002192D01*
X002009Y002242D01*
X002003Y002292D01*
X002001Y002342D01*
X005521Y020192D02*
X005523Y020242D01*
X005529Y020292D01*
X005539Y020341D01*
X005553Y020389D01*
X005570Y020436D01*
X005591Y020481D01*
X005616Y020525D01*
X005644Y020566D01*
X005676Y020605D01*
X005710Y020642D01*
X005747Y020676D01*
X005787Y020706D01*
X005829Y020733D01*
X005873Y020757D01*
X005919Y020778D01*
X005966Y020794D01*
X006014Y020807D01*
X006064Y020816D01*
X006113Y020821D01*
X006164Y020822D01*
X006214Y020819D01*
X006263Y020812D01*
X006312Y020801D01*
X006360Y020786D01*
X006406Y020768D01*
X006451Y020746D01*
X006494Y020720D01*
X006535Y020691D01*
X006574Y020659D01*
X006610Y020624D01*
X006642Y020586D01*
X006672Y020546D01*
X006699Y020503D01*
X006722Y020459D01*
X006741Y020413D01*
X006757Y020365D01*
X006769Y020316D01*
X006777Y020267D01*
X006781Y020217D01*
X006781Y020167D01*
X006777Y020117D01*
X006769Y020068D01*
X006757Y020019D01*
X006741Y019971D01*
X006722Y019925D01*
X006699Y019881D01*
X006672Y019838D01*
X006642Y019798D01*
X006610Y019760D01*
X006574Y019725D01*
X006535Y019693D01*
X006494Y019664D01*
X006451Y019638D01*
X006406Y019616D01*
X006360Y019598D01*
X006312Y019583D01*
X006263Y019572D01*
X006214Y019565D01*
X006164Y019562D01*
X006113Y019563D01*
X006064Y019568D01*
X006014Y019577D01*
X005966Y019590D01*
X005919Y019606D01*
X005873Y019627D01*
X005829Y019651D01*
X005787Y019678D01*
X005747Y019708D01*
X005710Y019742D01*
X005676Y019779D01*
X005644Y019818D01*
X005616Y019859D01*
X005591Y019903D01*
X005570Y019948D01*
X005553Y019995D01*
X005539Y020043D01*
X005529Y020092D01*
X005523Y020142D01*
X005521Y020192D01*
X025521Y014242D02*
X025523Y014292D01*
X025529Y014342D01*
X025539Y014391D01*
X025553Y014439D01*
X025570Y014486D01*
X025591Y014531D01*
X025616Y014575D01*
X025644Y014616D01*
X025676Y014655D01*
X025710Y014692D01*
X025747Y014726D01*
X025787Y014756D01*
X025829Y014783D01*
X025873Y014807D01*
X025919Y014828D01*
X025966Y014844D01*
X026014Y014857D01*
X026064Y014866D01*
X026113Y014871D01*
X026164Y014872D01*
X026214Y014869D01*
X026263Y014862D01*
X026312Y014851D01*
X026360Y014836D01*
X026406Y014818D01*
X026451Y014796D01*
X026494Y014770D01*
X026535Y014741D01*
X026574Y014709D01*
X026610Y014674D01*
X026642Y014636D01*
X026672Y014596D01*
X026699Y014553D01*
X026722Y014509D01*
X026741Y014463D01*
X026757Y014415D01*
X026769Y014366D01*
X026777Y014317D01*
X026781Y014267D01*
X026781Y014217D01*
X026777Y014167D01*
X026769Y014118D01*
X026757Y014069D01*
X026741Y014021D01*
X026722Y013975D01*
X026699Y013931D01*
X026672Y013888D01*
X026642Y013848D01*
X026610Y013810D01*
X026574Y013775D01*
X026535Y013743D01*
X026494Y013714D01*
X026451Y013688D01*
X026406Y013666D01*
X026360Y013648D01*
X026312Y013633D01*
X026263Y013622D01*
X026214Y013615D01*
X026164Y013612D01*
X026113Y013613D01*
X026064Y013618D01*
X026014Y013627D01*
X025966Y013640D01*
X025919Y013656D01*
X025873Y013677D01*
X025829Y013701D01*
X025787Y013728D01*
X025747Y013758D01*
X025710Y013792D01*
X025676Y013829D01*
X025644Y013868D01*
X025616Y013909D01*
X025591Y013953D01*
X025570Y013998D01*
X025553Y014045D01*
X025539Y014093D01*
X025529Y014142D01*
X025523Y014192D01*
X025521Y014242D01*
X025521Y003242D02*
X025523Y003292D01*
X025529Y003342D01*
X025539Y003391D01*
X025553Y003439D01*
X025570Y003486D01*
X025591Y003531D01*
X025616Y003575D01*
X025644Y003616D01*
X025676Y003655D01*
X025710Y003692D01*
X025747Y003726D01*
X025787Y003756D01*
X025829Y003783D01*
X025873Y003807D01*
X025919Y003828D01*
X025966Y003844D01*
X026014Y003857D01*
X026064Y003866D01*
X026113Y003871D01*
X026164Y003872D01*
X026214Y003869D01*
X026263Y003862D01*
X026312Y003851D01*
X026360Y003836D01*
X026406Y003818D01*
X026451Y003796D01*
X026494Y003770D01*
X026535Y003741D01*
X026574Y003709D01*
X026610Y003674D01*
X026642Y003636D01*
X026672Y003596D01*
X026699Y003553D01*
X026722Y003509D01*
X026741Y003463D01*
X026757Y003415D01*
X026769Y003366D01*
X026777Y003317D01*
X026781Y003267D01*
X026781Y003217D01*
X026777Y003167D01*
X026769Y003118D01*
X026757Y003069D01*
X026741Y003021D01*
X026722Y002975D01*
X026699Y002931D01*
X026672Y002888D01*
X026642Y002848D01*
X026610Y002810D01*
X026574Y002775D01*
X026535Y002743D01*
X026494Y002714D01*
X026451Y002688D01*
X026406Y002666D01*
X026360Y002648D01*
X026312Y002633D01*
X026263Y002622D01*
X026214Y002615D01*
X026164Y002612D01*
X026113Y002613D01*
X026064Y002618D01*
X026014Y002627D01*
X025966Y002640D01*
X025919Y002656D01*
X025873Y002677D01*
X025829Y002701D01*
X025787Y002728D01*
X025747Y002758D01*
X025710Y002792D01*
X025676Y002829D01*
X025644Y002868D01*
X025616Y002909D01*
X025591Y002953D01*
X025570Y002998D01*
X025553Y003045D01*
X025539Y003093D01*
X025529Y003142D01*
X025523Y003192D01*
X025521Y003242D01*
D12*
X020251Y008882D02*
X020251Y009402D01*
X019251Y009402D02*
X019251Y008882D01*
X018251Y008882D02*
X018251Y009402D01*
X017451Y008202D02*
X017451Y007682D01*
X016451Y007682D02*
X016451Y008202D01*
X015451Y008202D02*
X015451Y007682D01*
X015451Y010582D02*
X015451Y011102D01*
X016451Y011102D02*
X016451Y010582D01*
X017451Y010582D02*
X017451Y011102D01*
X018251Y011382D02*
X018251Y011902D01*
X019251Y011902D02*
X019251Y011382D01*
X020251Y011382D02*
X020251Y011902D01*
X018351Y013482D02*
X018351Y014002D01*
X017351Y014002D02*
X017351Y013482D01*
X016351Y013482D02*
X016351Y014002D01*
X015351Y014002D02*
X015351Y013482D01*
X014351Y013482D02*
X014351Y014002D01*
X013351Y014002D02*
X013351Y013482D01*
X012351Y013482D02*
X012351Y014002D01*
X011351Y014002D02*
X011351Y013482D01*
X010351Y013482D02*
X010351Y014002D01*
X009351Y014002D02*
X009351Y013482D01*
X008351Y013482D02*
X008351Y014002D01*
X007351Y014002D02*
X007351Y013482D01*
X007351Y016482D02*
X007351Y017002D01*
X008351Y017002D02*
X008351Y016482D01*
X009351Y016482D02*
X009351Y017002D01*
X010351Y017002D02*
X010351Y016482D01*
X011351Y016482D02*
X011351Y017002D01*
X012351Y017002D02*
X012351Y016482D01*
X013351Y016482D02*
X013351Y017002D01*
X014351Y017002D02*
X014351Y016482D01*
X015351Y016482D02*
X015351Y017002D01*
X016351Y017002D02*
X016351Y016482D01*
X017351Y016482D02*
X017351Y017002D01*
X018351Y017002D02*
X018351Y016482D01*
D13*
X003651Y009572D02*
X003651Y008912D01*
X002651Y008912D02*
X002651Y009572D01*
X001651Y009572D02*
X001651Y008912D01*
D14*
X005751Y006042D03*
X007851Y005642D03*
X011851Y005642D03*
X005751Y002042D03*
D15*
X006351Y007842D02*
X006351Y008442D01*
X007351Y008442D02*
X007351Y007842D01*
X008351Y007842D02*
X008351Y008442D01*
X009351Y008442D02*
X009351Y007842D01*
X010351Y007842D02*
X010351Y008442D01*
X011351Y008442D02*
X011351Y007842D01*
X013751Y008242D02*
X014351Y008242D01*
X014351Y007242D02*
X013751Y007242D01*
X013751Y009242D02*
X014351Y009242D01*
X014351Y010242D02*
X013751Y010242D01*
X022351Y010742D02*
X022951Y010742D01*
X022951Y011742D02*
X022351Y011742D01*
X022351Y012742D02*
X022951Y012742D01*
X022951Y009742D02*
X022351Y009742D01*
X022351Y008742D02*
X022951Y008742D01*
X022951Y007742D02*
X022351Y007742D01*
X022151Y001542D02*
X022151Y000942D01*
X021151Y000942D02*
X021151Y001542D01*
X020151Y001542D02*
X020151Y000942D01*
X018151Y000942D02*
X018151Y001542D01*
X017151Y001542D02*
X017151Y000942D01*
X016151Y000942D02*
X016151Y001542D01*
X015151Y001542D02*
X015151Y000942D01*
X014151Y000942D02*
X014151Y001542D01*
X013151Y001542D02*
X013151Y000942D01*
X023151Y000942D02*
X023151Y001542D01*
X024151Y001542D02*
X024151Y000942D01*
X025151Y000942D02*
X025151Y001542D01*
X025151Y019942D02*
X025151Y020542D01*
X024151Y020542D02*
X024151Y019942D01*
X023151Y019942D02*
X023151Y020542D01*
X022151Y020542D02*
X022151Y019942D01*
X021151Y019942D02*
X021151Y020542D01*
X020151Y020542D02*
X020151Y019942D01*
X019151Y019942D02*
X019151Y020542D01*
X018151Y020542D02*
X018151Y019942D01*
X016551Y019942D02*
X016551Y020542D01*
X015551Y020542D02*
X015551Y019942D01*
X014551Y019942D02*
X014551Y020542D01*
X013551Y020542D02*
X013551Y019942D01*
X012551Y019942D02*
X012551Y020542D01*
X011551Y020542D02*
X011551Y019942D01*
X010551Y019942D02*
X010551Y020542D01*
X009551Y020542D02*
X009551Y019942D01*
D16*
X009051Y002639D02*
X009051Y002045D01*
X008051Y002045D02*
X008051Y002639D01*
X010151Y002639D02*
X010151Y002045D01*
X011151Y002045D02*
X011151Y002639D01*
D17*
X019651Y003242D03*
X020651Y003242D03*
X021651Y003242D03*
X022651Y003242D03*
X024651Y004742D03*
X024651Y006242D03*
X024651Y007742D03*
X024651Y009242D03*
X026651Y009242D03*
X026651Y007742D03*
X026651Y006242D03*
X026651Y004742D03*
X022651Y005242D03*
X021651Y005242D03*
X020651Y005242D03*
X019651Y005242D03*
X012351Y010142D03*
X011551Y011942D03*
X010551Y011942D03*
X008551Y011942D03*
X007651Y011942D03*
X005651Y011942D03*
X004651Y012542D03*
X002651Y012542D03*
X005251Y010142D03*
X008251Y010142D03*
X009351Y010142D03*
X013551Y011942D03*
X008151Y019142D03*
X008151Y021142D03*
D18*
X001661Y019732D03*
X001661Y015742D03*
X001661Y014752D03*
X004641Y014752D03*
X004641Y015742D03*
D19*
X025201Y012242D03*
X025201Y011242D03*
X026201Y011242D03*
X026201Y012242D03*
X026201Y010242D03*
X025201Y010242D03*
D20*
X016151Y004842D03*
D21*
X014751Y004842D03*
D22*
X016151Y004842D02*
X016151Y003142D01*
X016151Y001842D01*
X016151Y001742D01*
X015751Y002142D01*
X012851Y002142D01*
X012751Y003242D02*
X012751Y005642D01*
X010851Y003242D02*
X011151Y002942D01*
X011151Y002342D01*
X010851Y003242D02*
X009351Y003242D01*
X009051Y002942D01*
X009051Y002342D01*
X008051Y002342D02*
X006751Y003642D01*
X006751Y006342D01*
X006151Y006942D01*
X004851Y006942D01*
X004351Y007442D01*
X004351Y009842D01*
X003351Y010842D01*
X002651Y010842D01*
X001551Y011942D01*
X001551Y013742D01*
X003551Y015742D01*
X004641Y015742D01*
X006551Y017242D02*
X007051Y017642D01*
X007951Y017642D01*
X008351Y017142D01*
X008351Y016742D01*
X009351Y016742D02*
X009351Y016242D01*
X009651Y015842D01*
X010851Y015842D01*
X012551Y015842D01*
X013551Y015842D01*
X015851Y015842D01*
X016851Y015842D01*
X019551Y015842D01*
X020251Y015142D01*
X020251Y011642D01*
X020251Y009142D01*
X020251Y008242D01*
X019051Y007142D01*
X018151Y007142D01*
X017451Y006442D01*
X017451Y004142D01*
X016751Y003442D01*
X016451Y003442D01*
X016151Y003142D01*
X016551Y002242D02*
X016151Y001842D01*
X016151Y001742D02*
X016151Y001242D01*
X016551Y002242D02*
X024851Y002242D01*
X025151Y002542D01*
X025151Y003642D01*
X025651Y004142D01*
X026451Y004142D01*
X026651Y004342D01*
X026651Y004742D01*
X026651Y006242D01*
X026651Y007742D01*
X026651Y009242D01*
X023951Y009142D02*
X023551Y008742D01*
X022651Y008742D01*
X021751Y009142D02*
X021751Y008042D01*
X022051Y007742D01*
X022651Y007742D01*
X021751Y009142D02*
X021351Y009542D01*
X021351Y017442D01*
X020651Y018142D01*
X016651Y018142D01*
X015551Y019242D01*
X015551Y020242D01*
X014551Y020242D02*
X014551Y018442D01*
X014151Y018142D01*
X012251Y018142D01*
X011851Y017542D01*
X011351Y017542D02*
X011351Y016742D01*
X011351Y017542D02*
X010851Y018142D01*
X006851Y018142D01*
X006051Y017442D01*
X006051Y013942D01*
X004651Y012542D01*
X006551Y011342D02*
X007851Y010342D01*
X008251Y010142D01*
X006551Y011342D02*
X006551Y017242D01*
X008651Y015842D02*
X009651Y015842D01*
X008651Y015842D02*
X007351Y014742D01*
X007351Y013742D01*
X008351Y013742D02*
X008351Y012142D01*
X008551Y011942D01*
X010351Y013742D02*
X010351Y014642D01*
X010851Y015842D01*
X011851Y015242D02*
X011351Y014742D01*
X011351Y013742D01*
X012851Y015242D02*
X013351Y014742D01*
X013351Y013742D01*
X014351Y013742D02*
X014351Y014842D01*
X013851Y015242D01*
X013551Y015842D02*
X013351Y016142D01*
X013351Y016742D01*
X012351Y016742D02*
X012351Y016142D01*
X012551Y015842D01*
X015351Y014642D02*
X015351Y013742D01*
X015351Y014642D02*
X015851Y015842D01*
X016351Y016242D02*
X016851Y015842D01*
X016351Y016242D02*
X016351Y016742D01*
X015851Y017642D02*
X018451Y017642D01*
X019551Y016542D01*
X019551Y015842D02*
X018351Y014642D01*
X018351Y013742D01*
X017351Y013742D02*
X017351Y012842D01*
X016951Y012442D01*
X014051Y012442D01*
X013551Y011942D01*
X011551Y011942D02*
X011551Y011242D01*
X011351Y011042D01*
X011151Y010842D01*
X010351Y010042D01*
X010351Y008142D01*
X005751Y006042D02*
X005451Y006342D01*
X002951Y006342D01*
X002751Y006542D01*
X002651Y006642D01*
X002651Y009242D01*
X002651Y009942D01*
X001651Y010942D01*
X001651Y009242D02*
X001651Y006242D01*
X002051Y005842D01*
X004551Y005842D01*
X004951Y005442D01*
X004951Y004642D01*
X005751Y002042D01*
X006451Y002042D01*
X006651Y001742D01*
X007151Y001242D02*
X005451Y001242D01*
X005051Y001642D01*
X005051Y002542D01*
X004751Y003342D01*
X004251Y004942D01*
X004151Y005342D01*
X001851Y005342D01*
X001051Y006142D01*
X001051Y014142D01*
X001661Y014752D01*
X000551Y019282D02*
X000551Y005942D01*
X001651Y004842D01*
X003851Y004842D01*
X004351Y003242D01*
X004551Y002742D01*
X004551Y001542D01*
X005351Y000742D01*
X009751Y000742D01*
X010151Y001142D01*
X010151Y002342D01*
X017451Y006442D02*
X017451Y007942D01*
X017451Y010842D01*
X023951Y009142D02*
X023951Y018042D01*
X023051Y018942D01*
X017051Y018942D01*
X016551Y019442D01*
X016551Y020242D01*
X014051Y018742D02*
X013951Y018842D01*
X013151Y018842D01*
X012951Y018842D01*
X012051Y018842D01*
X011551Y019342D01*
X011551Y020242D01*
X013551Y020242D02*
X013551Y019342D01*
X001661Y019732D02*
X001001Y019732D01*
X000551Y019282D01*
D23*
X001651Y010942D03*
X011851Y015242D03*
X012851Y015242D03*
X013851Y015242D03*
X011851Y017542D03*
X013551Y019342D03*
X014051Y018742D03*
X015851Y017642D03*
X019551Y016542D03*
X012751Y005642D03*
X012751Y003242D03*
X012851Y002142D03*
X007151Y001242D03*
X006651Y001742D03*
M02*
