%
M48
M72
T01C0.0236
T02C0.0315
T03C0.0320
T04C0.0394
T05C0.0400
T06C0.0440
T07C0.1260
T08C0.1300
%
T01
X6651Y1742
X7151Y1242
X12751Y3242
X12851Y2142
X12751Y5642
X1651Y10942
X11851Y15242
X12851Y15242
X13851Y15242
X11851Y17542
X13551Y19342
X14051Y18742
X15851Y17642
X19551Y16542
T02
X4641Y15742
X4641Y14752
X1661Y14752
X1661Y15742
X1661Y19732
T03
X7351Y16742
X8351Y16742
X9351Y16742
X10351Y16742
X11351Y16742
X12351Y16742
X13351Y16742
X14351Y16742
X15351Y16742
X16351Y16742
X17351Y16742
X18351Y16742
X18351Y13742
X17351Y13742
X16351Y13742
X15351Y13742
X14351Y13742
X13351Y13742
X12351Y13742
X11351Y13742
X10351Y13742
X9351Y13742
X8351Y13742
X7351Y13742
X7651Y11942
X8551Y11942
X10551Y11942
X11551Y11942
X13551Y11942
X15451Y10842
X16451Y10842
X17451Y10842
X18251Y11642
X19251Y11642
X20251Y11642
X20251Y9142
X19251Y9142
X18251Y9142
X17451Y7942
X16451Y7942
X15451Y7942
X12351Y10142
X9351Y10142
X8251Y10142
X5651Y11942
X4651Y12542
X2651Y12542
X5251Y10142
X14751Y4842
X16151Y4842
X19651Y5242
X20651Y5242
X21651Y5242
X22651Y5242
X24651Y4742
X24651Y6242
X24651Y7742
X24651Y9242
X26651Y9242
X26651Y7742
X26651Y6242
X26651Y4742
X22651Y3242
X21651Y3242
X20651Y3242
X19651Y3242
X8151Y19142
X8151Y21142
T04
X8051Y2342
X9051Y2342
X10151Y2342
X11151Y2342
T05
X13151Y1242
X14151Y1242
X15151Y1242
X16151Y1242
X17151Y1242
X18151Y1242
X20151Y1242
X21151Y1242
X22151Y1242
X23151Y1242
X24151Y1242
X25151Y1242
X22651Y7742
X22651Y8742
X22651Y9742
X22651Y10742
X22651Y11742
X22651Y12742
X25201Y12242
X25201Y11242
X26201Y11242
X26201Y12242
X26201Y10242
X25201Y10242
X14051Y10242
X14051Y9242
X14051Y8242
X14051Y7242
X11351Y8142
X10351Y8142
X9351Y8142
X8351Y8142
X7351Y8142
X6351Y8142
X9551Y20242
X10551Y20242
X11551Y20242
X12551Y20242
X13551Y20242
X14551Y20242
X15551Y20242
X16551Y20242
X18151Y20242
X19151Y20242
X20151Y20242
X21151Y20242
X22151Y20242
X23151Y20242
X24151Y20242
X25151Y20242
T06
X11851Y5642
X7851Y5642
X5751Y6042
X3651Y9242
X2651Y9242
X1651Y9242
X5751Y2042
T07
X26151Y3242
X26151Y14242
X6151Y20192
T08
X2651Y2342
M30
