G75*
G70*
%OFA0B0*%
%FSLAX24Y24*%
%IPPOS*%
%LPD*%
%AMOC8*
5,1,8,0,0,1.08239X$1,22.5*
%
%ADD10C,0.0100*%
%ADD11C,0.0000*%
D10*
X000151Y000242D02*
X000151Y021742D01*
X027651Y021742D01*
X027651Y000242D01*
X000151Y000242D01*
D11*
X002001Y002342D02*
X002003Y002392D01*
X002009Y002442D01*
X002019Y002492D01*
X002032Y002540D01*
X002049Y002588D01*
X002070Y002634D01*
X002094Y002678D01*
X002122Y002720D01*
X002153Y002760D01*
X002187Y002797D01*
X002224Y002832D01*
X002263Y002863D01*
X002304Y002892D01*
X002348Y002917D01*
X002394Y002939D01*
X002441Y002957D01*
X002489Y002971D01*
X002538Y002982D01*
X002588Y002989D01*
X002638Y002992D01*
X002689Y002991D01*
X002739Y002986D01*
X002789Y002977D01*
X002837Y002965D01*
X002885Y002948D01*
X002931Y002928D01*
X002976Y002905D01*
X003019Y002878D01*
X003059Y002848D01*
X003097Y002815D01*
X003132Y002779D01*
X003165Y002740D01*
X003194Y002699D01*
X003220Y002656D01*
X003243Y002611D01*
X003262Y002564D01*
X003277Y002516D01*
X003289Y002467D01*
X003297Y002417D01*
X003301Y002367D01*
X003301Y002317D01*
X003297Y002267D01*
X003289Y002217D01*
X003277Y002168D01*
X003262Y002120D01*
X003243Y002073D01*
X003220Y002028D01*
X003194Y001985D01*
X003165Y001944D01*
X003132Y001905D01*
X003097Y001869D01*
X003059Y001836D01*
X003019Y001806D01*
X002976Y001779D01*
X002931Y001756D01*
X002885Y001736D01*
X002837Y001719D01*
X002789Y001707D01*
X002739Y001698D01*
X002689Y001693D01*
X002638Y001692D01*
X002588Y001695D01*
X002538Y001702D01*
X002489Y001713D01*
X002441Y001727D01*
X002394Y001745D01*
X002348Y001767D01*
X002304Y001792D01*
X002263Y001821D01*
X002224Y001852D01*
X002187Y001887D01*
X002153Y001924D01*
X002122Y001964D01*
X002094Y002006D01*
X002070Y002050D01*
X002049Y002096D01*
X002032Y002144D01*
X002019Y002192D01*
X002009Y002242D01*
X002003Y002292D01*
X002001Y002342D01*
X005521Y020192D02*
X005523Y020242D01*
X005529Y020292D01*
X005539Y020341D01*
X005553Y020389D01*
X005570Y020436D01*
X005591Y020481D01*
X005616Y020525D01*
X005644Y020566D01*
X005676Y020605D01*
X005710Y020642D01*
X005747Y020676D01*
X005787Y020706D01*
X005829Y020733D01*
X005873Y020757D01*
X005919Y020778D01*
X005966Y020794D01*
X006014Y020807D01*
X006064Y020816D01*
X006113Y020821D01*
X006164Y020822D01*
X006214Y020819D01*
X006263Y020812D01*
X006312Y020801D01*
X006360Y020786D01*
X006406Y020768D01*
X006451Y020746D01*
X006494Y020720D01*
X006535Y020691D01*
X006574Y020659D01*
X006610Y020624D01*
X006642Y020586D01*
X006672Y020546D01*
X006699Y020503D01*
X006722Y020459D01*
X006741Y020413D01*
X006757Y020365D01*
X006769Y020316D01*
X006777Y020267D01*
X006781Y020217D01*
X006781Y020167D01*
X006777Y020117D01*
X006769Y020068D01*
X006757Y020019D01*
X006741Y019971D01*
X006722Y019925D01*
X006699Y019881D01*
X006672Y019838D01*
X006642Y019798D01*
X006610Y019760D01*
X006574Y019725D01*
X006535Y019693D01*
X006494Y019664D01*
X006451Y019638D01*
X006406Y019616D01*
X006360Y019598D01*
X006312Y019583D01*
X006263Y019572D01*
X006214Y019565D01*
X006164Y019562D01*
X006113Y019563D01*
X006064Y019568D01*
X006014Y019577D01*
X005966Y019590D01*
X005919Y019606D01*
X005873Y019627D01*
X005829Y019651D01*
X005787Y019678D01*
X005747Y019708D01*
X005710Y019742D01*
X005676Y019779D01*
X005644Y019818D01*
X005616Y019859D01*
X005591Y019903D01*
X005570Y019948D01*
X005553Y019995D01*
X005539Y020043D01*
X005529Y020092D01*
X005523Y020142D01*
X005521Y020192D01*
X025521Y014242D02*
X025523Y014292D01*
X025529Y014342D01*
X025539Y014391D01*
X025553Y014439D01*
X025570Y014486D01*
X025591Y014531D01*
X025616Y014575D01*
X025644Y014616D01*
X025676Y014655D01*
X025710Y014692D01*
X025747Y014726D01*
X025787Y014756D01*
X025829Y014783D01*
X025873Y014807D01*
X025919Y014828D01*
X025966Y014844D01*
X026014Y014857D01*
X026064Y014866D01*
X026113Y014871D01*
X026164Y014872D01*
X026214Y014869D01*
X026263Y014862D01*
X026312Y014851D01*
X026360Y014836D01*
X026406Y014818D01*
X026451Y014796D01*
X026494Y014770D01*
X026535Y014741D01*
X026574Y014709D01*
X026610Y014674D01*
X026642Y014636D01*
X026672Y014596D01*
X026699Y014553D01*
X026722Y014509D01*
X026741Y014463D01*
X026757Y014415D01*
X026769Y014366D01*
X026777Y014317D01*
X026781Y014267D01*
X026781Y014217D01*
X026777Y014167D01*
X026769Y014118D01*
X026757Y014069D01*
X026741Y014021D01*
X026722Y013975D01*
X026699Y013931D01*
X026672Y013888D01*
X026642Y013848D01*
X026610Y013810D01*
X026574Y013775D01*
X026535Y013743D01*
X026494Y013714D01*
X026451Y013688D01*
X026406Y013666D01*
X026360Y013648D01*
X026312Y013633D01*
X026263Y013622D01*
X026214Y013615D01*
X026164Y013612D01*
X026113Y013613D01*
X026064Y013618D01*
X026014Y013627D01*
X025966Y013640D01*
X025919Y013656D01*
X025873Y013677D01*
X025829Y013701D01*
X025787Y013728D01*
X025747Y013758D01*
X025710Y013792D01*
X025676Y013829D01*
X025644Y013868D01*
X025616Y013909D01*
X025591Y013953D01*
X025570Y013998D01*
X025553Y014045D01*
X025539Y014093D01*
X025529Y014142D01*
X025523Y014192D01*
X025521Y014242D01*
X025521Y003242D02*
X025523Y003292D01*
X025529Y003342D01*
X025539Y003391D01*
X025553Y003439D01*
X025570Y003486D01*
X025591Y003531D01*
X025616Y003575D01*
X025644Y003616D01*
X025676Y003655D01*
X025710Y003692D01*
X025747Y003726D01*
X025787Y003756D01*
X025829Y003783D01*
X025873Y003807D01*
X025919Y003828D01*
X025966Y003844D01*
X026014Y003857D01*
X026064Y003866D01*
X026113Y003871D01*
X026164Y003872D01*
X026214Y003869D01*
X026263Y003862D01*
X026312Y003851D01*
X026360Y003836D01*
X026406Y003818D01*
X026451Y003796D01*
X026494Y003770D01*
X026535Y003741D01*
X026574Y003709D01*
X026610Y003674D01*
X026642Y003636D01*
X026672Y003596D01*
X026699Y003553D01*
X026722Y003509D01*
X026741Y003463D01*
X026757Y003415D01*
X026769Y003366D01*
X026777Y003317D01*
X026781Y003267D01*
X026781Y003217D01*
X026777Y003167D01*
X026769Y003118D01*
X026757Y003069D01*
X026741Y003021D01*
X026722Y002975D01*
X026699Y002931D01*
X026672Y002888D01*
X026642Y002848D01*
X026610Y002810D01*
X026574Y002775D01*
X026535Y002743D01*
X026494Y002714D01*
X026451Y002688D01*
X026406Y002666D01*
X026360Y002648D01*
X026312Y002633D01*
X026263Y002622D01*
X026214Y002615D01*
X026164Y002612D01*
X026113Y002613D01*
X026064Y002618D01*
X026014Y002627D01*
X025966Y002640D01*
X025919Y002656D01*
X025873Y002677D01*
X025829Y002701D01*
X025787Y002728D01*
X025747Y002758D01*
X025710Y002792D01*
X025676Y002829D01*
X025644Y002868D01*
X025616Y002909D01*
X025591Y002953D01*
X025570Y002998D01*
X025553Y003045D01*
X025539Y003093D01*
X025529Y003142D01*
X025523Y003192D01*
X025521Y003242D01*
M02*
